<svg xmlns="http://www.w3.org/2000/svg" xmlns:xlink="http://www.w3.org/1999/xlink" width="1024" zoomAndPan="magnify" viewBox="0 0 768 767.999994" height="1024" preserveAspectRatio="xMidYMid meet" version="1.0"><defs><clipPath id="05b980489c"><path d="M 322.570312 398.492188 L 548.320312 398.492188 L 548.320312 655.742188 L 322.570312 655.742188 Z M 322.570312 398.492188 " clip-rule="nonzero"/></clipPath><clipPath id="eab49fd012"><path d="M 264 231 L 495 231 L 495 537.898438 L 264 537.898438 Z M 264 231 " clip-rule="nonzero"/></clipPath></defs><g clip-path="url(#05b980489c)"><path fill="#fa8460" d="M 548.214844 570.226562 C 548.214844 509.84375 490.722656 498.421875 452.636719 490.710938 C 440.367188 488.285156 419.824219 484.144531 419.824219 479.863281 C 419.824219 474.296875 431.664062 472.4375 442.933594 472.4375 C 462.195312 472.4375 482.878906 478.007812 504.417969 488.855469 L 511.265625 492.28125 L 540.082031 422.757812 L 534.519531 419.617188 C 510.695312 406.199219 477.457031 398.492188 443.503906 398.492188 C 407.984375 398.492188 378.457031 406.914062 358.054688 423.046875 C 338.796875 438.175781 328.242188 459.734375 328.242188 484.003906 C 328.242188 544.675781 385.304688 556.523438 423.105469 564.375 C 436.515625 567.230469 456.628906 571.371094 456.628906 576.222656 C 456.628906 579.507812 447.644531 581.648438 433.519531 581.648438 C 409.554688 581.648438 381.59375 573.941406 360.480469 561.378906 L 353.632812 557.238281 L 322.679688 627.472656 L 327.957031 630.757812 C 353.0625 646.175781 393.148438 655.742188 432.808594 655.742188 C 468.183594 655.742188 497.855469 647.175781 518.257812 630.902344 C 537.515625 615.769531 548.214844 594.210938 548.214844 570.226562 Z M 548.214844 570.226562 " fill-opacity="1" fill-rule="nonzero"/></g><g clip-path="url(#eab49fd012)"><path fill="#eeeeee" d="M 391.585938 331.054688 C 415.6875 338.382812 436.632812 352.035156 455.710938 368.558594 C 463.890625 375.3125 471.492188 382.929688 478.089844 391.261719 C 503.914062 424.457031 498.316406 468.859375 465.324219 495.15625 C 461.59375 498.171875 457.578125 500.902344 453.417969 503.34375 C 419.5625 520.875 384.558594 534.382812 345.824219 535.964844 C 334.492188 536.394531 323.160156 537.6875 311.828125 537.542969 C 304.652344 537.402344 297.625 535.964844 290.59375 534.382812 C 280.410156 532.085938 274.816406 525.042969 273.667969 514.839844 C 271.371094 494.578125 268.359375 474.460938 267.785156 454.203125 C 266.351562 403.621094 266.066406 353.039062 265.347656 302.460938 C 265.203125 288.519531 264.917969 274.726562 264.34375 260.929688 C 263.914062 248 277.539062 232.910156 291.742188 232.046875 C 316.5625 230.613281 341.378906 232.480469 365.335938 239.234375 C 390.296875 246.273438 406.21875 273.578125 400.910156 300.304688 C 398.902344 310.21875 395.03125 319.988281 391.585938 331.054688 Z M 314.695312 498.746094 C 321.4375 498.027344 327.894531 497.308594 334.207031 496.734375 C 367.199219 494.003906 398.042969 483.800781 427.738281 469.71875 C 453.703125 457.363281 462.023438 431.355469 436.917969 407.5 C 407.65625 379.625 373.226562 364.964844 333.34375 362.378906 C 325.3125 361.804688 317.132812 360.226562 308.8125 362.8125 C 308.242188 408.21875 307.523438 453.195312 314.695312 498.746094 Z M 304.222656 270.847656 C 304.941406 286.222656 305.65625 300.449219 306.519531 315.535156 C 315.988281 316.828125 324.449219 318.984375 332.914062 318.695312 C 347.546875 318.554688 359.453125 306.339844 359.453125 291.539062 C 359.453125 284.355469 357.160156 280.1875 350.558594 278.320312 C 335.351562 273.863281 319.859375 271.421875 304.222656 270.847656 Z M 304.222656 270.847656 " fill-opacity="1" fill-rule="nonzero"/></g></svg>