<svg xmlns="http://www.w3.org/2000/svg" xmlns:xlink="http://www.w3.org/1999/xlink" width="1024" zoomAndPan="magnify" viewBox="0 0 768 767.999994" height="1024" preserveAspectRatio="xMidYMid meet" version="1.0"><defs><clipPath id="fd7effed38"><path d="M 236.226562 305.171875 L 635.226562 305.171875 L 635.226562 759.671875 L 236.226562 759.671875 Z M 236.226562 305.171875 " clip-rule="nonzero"/></clipPath></defs><g clip-path="url(#fd7effed38)"><path fill="#fa8460" d="M 635.042969 608.59375 C 635.042969 501.902344 533.429688 481.726562 466.109375 468.105469 C 444.425781 463.816406 408.117188 456.503906 408.117188 448.9375 C 408.117188 439.101562 429.046875 435.820312 448.964844 435.820312 C 483.003906 435.820312 519.5625 445.65625 557.636719 464.828125 L 569.738281 470.878906 L 620.671875 348.046875 L 610.835938 342.5 C 568.730469 318.792969 509.980469 305.171875 449.972656 305.171875 C 387.191406 305.171875 334.996094 320.050781 298.941406 348.554688 C 264.902344 375.289062 246.246094 413.375 246.246094 456.25 C 246.246094 563.445312 347.101562 584.378906 413.917969 598.25 C 437.617188 603.296875 473.167969 610.609375 473.167969 619.183594 C 473.167969 624.984375 457.285156 628.769531 432.324219 628.769531 C 389.964844 628.769531 340.542969 615.148438 303.226562 592.953125 L 291.125 585.640625 L 236.410156 709.730469 L 245.742188 715.53125 C 290.117188 742.773438 360.96875 759.671875 431.0625 759.671875 C 493.59375 759.671875 546.039062 744.539062 582.09375 715.785156 C 616.132812 689.050781 635.042969 650.964844 635.042969 608.59375 Z M 635.042969 608.59375 " fill-opacity="1" fill-rule="nonzero"/></g><path fill="#eeeeee" d="M 358.460938 185.820312 C 401.089844 198.742188 438.136719 222.816406 471.882812 251.957031 C 486.34375 263.867188 499.792969 277.296875 511.464844 291.996094 C 557.136719 350.53125 547.242188 428.828125 488.882812 475.203125 C 482.285156 480.523438 475.179688 485.335938 467.824219 489.644531 C 407.941406 520.558594 346.03125 544.378906 277.519531 547.167969 C 257.476562 547.925781 237.429688 550.207031 217.386719 549.953125 C 204.699219 549.699219 192.265625 547.167969 179.832031 544.378906 C 161.816406 540.324219 151.921875 527.910156 149.890625 509.917969 C 145.832031 474.1875 140.503906 438.710938 139.488281 402.984375 C 136.949219 313.785156 136.445312 224.589844 135.175781 135.394531 C 134.921875 110.816406 134.414062 86.488281 133.398438 62.164062 C 132.636719 39.355469 156.742188 12.75 181.863281 11.230469 C 225.757812 8.695312 269.65625 11.988281 312.027344 23.898438 C 356.179688 36.316406 384.34375 84.460938 374.957031 131.59375 C 371.402344 149.078125 364.550781 166.308594 358.460938 185.820312 Z M 222.460938 481.535156 C 234.386719 480.269531 245.804688 479.003906 256.96875 477.988281 C 315.328125 473.175781 369.878906 455.183594 422.402344 430.351562 C 468.328125 408.558594 483.046875 362.691406 438.644531 320.628906 C 386.878906 271.46875 325.984375 245.621094 255.445312 241.0625 C 241.238281 240.046875 226.773438 237.261719 212.058594 241.820312 C 211.042969 321.894531 209.773438 401.210938 222.460938 481.535156 Z M 203.9375 79.648438 C 205.207031 106.761719 206.476562 131.847656 207.996094 158.453125 C 224.742188 160.734375 239.714844 164.535156 254.683594 164.027344 C 280.566406 163.773438 301.625 142.234375 301.625 116.136719 C 301.625 103.464844 297.566406 96.117188 285.894531 92.824219 C 258.996094 84.96875 231.59375 80.660156 203.9375 79.648438 Z M 203.9375 79.648438 " fill-opacity="1" fill-rule="nonzero"/></svg>